Coordinates
version=1
nRows=27
nColumns=12
inDegrees=yes

Units are S.I. units (second, meters, Newtons, ...)
Angles are in degrees

endheader
time	SC_y	SC_z	SC_x	AC_y	AC_z	AC_x	GH_y	GH_z	GH_yy	EL_x	PS_y
       0.0              -35.85           3.74          78.88          41.56          5.121          2.212         -142.3          65.56         -1.338          73.07          117.9
   0.02643              -35.84          3.739          78.87          41.56          5.119          2.213         -142.3          65.56         -1.314          73.07          117.9
   0.05285              -35.84          3.738          78.87          41.56          5.117          2.214         -142.3          65.57          -1.29          73.07          117.9
   0.07928              -35.84          3.737          78.86          41.56          5.115          2.215         -142.3          65.57         -1.263          73.07          117.9
    0.1057              -35.83          3.736          78.85          41.57          5.113          2.216         -142.3          65.57         -1.235          73.06          117.9
    0.1321              -35.83          3.734          78.84          41.57          5.111          2.218         -142.2          65.58         -1.205          73.06          117.9
    0.1586              -35.83          3.733          78.84          41.58          5.109          2.219         -142.2          65.58         -1.173          73.06          117.9
     0.185              -35.82          3.732          78.83          41.58          5.106           2.22         -142.2          65.59         -1.139          73.06          117.9
    0.2114              -35.82           3.73          78.82          41.59          5.103          2.222         -142.2          65.59         -1.102          73.05          117.9
    0.2378              -35.82          3.729          78.81          41.59          5.101          2.224         -142.1           65.6         -1.063          73.05          117.8
    0.2643              -35.81          3.727           78.8           41.6          5.097          2.225         -142.1           65.6         -1.021          73.05          117.8
    0.2907              -35.81          3.725          78.79           41.6          5.094          2.227         -142.1          65.61        -0.9751          73.04          117.8
    0.3171               -35.8          3.723          78.77          41.61           5.09          2.229         -142.0          65.62        -0.9261          73.04          117.8
    0.3435               -35.8          3.721          78.76          41.61          5.087          2.232         -142.0          65.62        -0.8731          73.03          117.8
      0.37              -35.79          3.719          78.75          41.62          5.082          2.234         -142.0          65.63        -0.8158          73.03          117.8
    0.3964              -35.78          3.717          78.73          41.63          5.078          2.237         -141.9          65.64        -0.7537          73.03          117.7
    0.4228              -35.78          3.714          78.71          41.64          5.073          2.239         -141.9          65.65        -0.6862          73.02          117.7
    0.4492              -35.77          3.711          78.69          41.65          5.067          2.243         -141.8          65.66        -0.6126          73.01          117.7
    0.4757              -35.76          3.708          78.67          41.66          5.061          2.246         -141.8          65.67        -0.5323          73.01          117.7
    0.5021              -35.75          3.705          78.65          41.67          5.055           2.25         -141.7          65.69        -0.4444           73.0          117.6
    0.5285              -35.74          3.701          78.63          41.68          5.048          2.254         -141.6           65.7        -0.3478          72.99          117.6
     0.555              -35.73          3.697           78.6           41.7           5.04          2.258         -141.6          65.71        -0.2415          72.98          117.6
    0.5814              -35.72          3.692          78.57          41.71          5.031          2.263         -141.5          65.73        -0.1241          72.98          117.5
    0.6078               -35.7          3.687          78.54          41.73          5.022          2.269         -141.4          65.75       0.005929          72.97          117.5
    0.6342              -35.69          3.681           78.5          41.75          5.011          2.275         -141.3          65.77         0.1505          72.95          117.4
    0.6607              -35.67          3.675          78.46          41.77          4.999          2.281         -141.2          65.79         0.3119          72.94          117.4
    0.6871              -35.65          3.668          78.41          41.79          4.986          2.289         -141.0          65.82         0.4926          72.93          117.3
